<svg xmlns="http://www.w3.org/2000/svg" viewBox="0 0 900 1200" role="img" aria-labelledby="title2 desc2">
  <title id="title2">Travel image fallback</title>
  <desc id="desc2">A stylized ocean wave and horizon illustration used when a travel image cannot be loaded.</desc>
  <defs>
    <linearGradient id="bg2" x1="0" y1="0" x2="0" y2="1">
      <stop offset="0%" stop-color="#edf6f9"/>
      <stop offset="100%" stop-color="#d8e9f1"/>
    </linearGradient>
  </defs>
  <rect width="900" height="1200" fill="url(#bg2)"/>
  <rect x="0" y="640" width="900" height="560" fill="#b8d1de"/>
  <path d="M0 760 C120 700, 220 820, 330 760 C450 700, 560 820, 670 760 C760 710, 830 780, 900 750 L900 1200 L0 1200 Z" fill="#4f6d7a"/>
  <path d="M0 840 C120 780, 220 900, 330 840 C450 780, 560 900, 670 840 C760 790, 830 860, 900 830 L900 1200 L0 1200 Z" fill="#2f4858"/>
  <circle cx="200" cy="250" r="95" fill="#ffffff" opacity="0.7"/>
</svg>
